<svg width="32" height="32" viewBox="0 0 48 48" fill="none" xmlns="http://www.w3.org/2000/svg">
  <rect x="4" y="4" width="40" height="40" rx="12" fill="#25D366"/>
  <path d="M24 14C19.6 14 16 17.6 16 22C16 23.5 16.4 24.8 17.2 26L16 30L19.1 28.9C20.2 29.6 21.5 30 23 30C27.4 30 31 26.4 31 22C31 17.6 27.4 14 23 14H24Z"
        fill="white"/>
  <path d="M20.5 19C20.2 19 19.7 19.2 19.5 19.3C19.3 19.4 18.9 19.7 18.9 20.2C18.9 20.8 19.3 21.4 19.3 21.4L20 22.5C20.7 23.6 21.8 24.7 22.9 25.4C24 26.1 25.1 26.4 26.2 26.7C26.7 26.8 27.1 26.5 27.3 26.3C27.5 26.1 27.8 25.6 28 25.3C28.2 25 28.2 24.6 28 24.4C27.8 24.2 27.1 23.8 26.6 23.5C26.1 23.2 25.7 23.3 25.4 23.6C25.1 23.9 24.9 24.2 24.6 24.2C24.3 24.2 23.7 24 23.1 23.5C22.5 23.1 22 22.4 21.8 22.1C21.6 21.8 21.7 21.6 21.9 21.4C22.1 21.2 22.3 21 22.4 20.8C22.5 20.6 22.6 20.3 22.5 20C22.4 19.7 21.8 19.3 21.4 19.1C21 18.9 20.8 18.9 20.5 19Z"
        fill="#25D366"/>
</svg>
